<svg width="42" height="42" viewBox="0 0 42 42" fill="none" xmlns="http://www.w3.org/2000/svg">
<g filter="url(#filter0_d_76_475)">
<circle cx="21" cy="19" r="17" fill="url(#paint0_linear_76_475)"/>
</g>
<g clip-path="url(#clip0_76_475)">
<path d="M27 15.4692C26.5166 15.6812 26.0014 15.8218 25.4644 15.8901C26.0169 15.5602 26.4386 15.0418 26.6368 14.417C26.1217 14.7241 25.5529 14.9411 24.9468 15.0621C24.4577 14.5413 23.7606 14.2188 23.0001 14.2188C21.5246 14.2188 20.3367 15.4164 20.3367 16.8846C20.3367 17.0958 20.3546 17.2989 20.3984 17.4923C18.1828 17.3842 16.2222 16.3223 14.9051 14.7046C14.6752 15.1036 14.5403 15.5602 14.5403 16.0518C14.5403 16.9748 15.0156 17.7929 15.7241 18.2666C15.2959 18.2585 14.8759 18.1342 14.52 17.9384C14.52 17.9465 14.52 17.9571 14.52 17.9676C14.52 19.2627 15.4438 20.3385 16.6552 20.5863C16.4383 20.6456 16.2019 20.6741 15.9565 20.6741C15.7859 20.6741 15.6136 20.6643 15.4519 20.6286C15.7972 21.684 16.7771 22.4599 17.9423 22.4851C17.0355 23.1944 15.8842 23.6218 14.6378 23.6218C14.4193 23.6218 14.2096 23.6121 14 23.5852C15.1806 24.3466 16.5797 24.7812 18.0885 24.7812C22.9928 24.7812 25.674 20.7188 25.674 17.1974C25.674 17.0796 25.6699 16.9658 25.6643 16.8529C26.1932 16.4775 26.6376 16.0087 27 15.4692Z" fill="white"/>
</g>
<defs>
<filter id="filter0_d_76_475" x="0" y="0" width="42" height="42" filterUnits="userSpaceOnUse" color-interpolation-filters="sRGB">
<feFlood flood-opacity="0" result="BackgroundImageFix"/>
<feColorMatrix in="SourceAlpha" type="matrix" values="0 0 0 0 0 0 0 0 0 0 0 0 0 0 0 0 0 0 127 0" result="hardAlpha"/>
<feOffset dy="2"/>
<feGaussianBlur stdDeviation="2"/>
<feComposite in2="hardAlpha" operator="out"/>
<feColorMatrix type="matrix" values="0 0 0 0 0.258824 0 0 0 0 0.768627 0 0 0 0 0.976471 0 0 0 1 0"/>
<feBlend mode="normal" in2="BackgroundImageFix" result="effect1_dropShadow_76_475"/>
<feBlend mode="normal" in="SourceGraphic" in2="effect1_dropShadow_76_475" result="shape"/>
</filter>
<linearGradient id="paint0_linear_76_475" x1="4" y1="19" x2="38" y2="19" gradientUnits="userSpaceOnUse">
<stop stop-color="#42CEFF"/>
<stop offset="1" stop-color="#8C00FF"/>
</linearGradient>
<clipPath id="clip0_76_475">
<rect width="13" height="13" fill="white" transform="translate(14 13)"/>
</clipPath>
</defs>
</svg>
