<svg width="42" height="42" viewBox="0 0 42 42" fill="none" xmlns="http://www.w3.org/2000/svg">
<g filter="url(#filter0_d_76_468)">
<circle cx="21" cy="19" r="17" fill="url(#paint0_linear_76_468)"/>
</g>
<g clip-path="url(#clip0_76_468)">
<path d="M24.481 12H18.519C16.5786 12 15 13.5786 15 15.519V21.4811C15 23.4214 16.5786 25 18.519 25H24.4811C26.4214 25 28 23.4214 28 21.4811V15.519C28 13.5786 26.4214 12 24.481 12V12ZM27.2379 21.4811C27.2379 23.0012 26.0012 24.2379 24.481 24.2379H18.519C16.9988 24.2379 15.7621 23.0012 15.7621 21.4811V15.519C15.7621 13.9988 16.9988 12.7621 18.519 12.7621H24.4811C26.0012 12.7621 27.2379 13.9988 27.2379 15.519V21.4811Z" fill="white"/>
<path d="M21.5 14.9453C19.54 14.9453 17.9454 16.5399 17.9454 18.4999C17.9454 20.4599 19.54 22.0545 21.5 22.0545C23.46 22.0545 25.0546 20.4599 25.0546 18.4999C25.0546 16.5399 23.46 14.9453 21.5 14.9453ZM21.5 21.2924C19.9603 21.2924 18.7075 20.0397 18.7075 18.4999C18.7075 16.9602 19.9603 15.7074 21.5 15.7074C23.0398 15.7074 24.2925 16.9602 24.2925 18.4999C24.2925 20.0397 23.0398 21.2924 21.5 21.2924Z" fill="white"/>
<path d="M25.1396 13.6831C24.5603 13.6831 24.0892 14.1543 24.0892 14.7334C24.0892 15.3127 24.5603 15.7839 25.1396 15.7839C25.7188 15.7839 26.19 15.3127 26.19 14.7334C26.19 14.1542 25.7188 13.6831 25.1396 13.6831ZM25.1396 15.0217C24.9807 15.0217 24.8513 14.8923 24.8513 14.7334C24.8513 14.5745 24.9807 14.4452 25.1396 14.4452C25.2986 14.4452 25.4279 14.5745 25.4279 14.7334C25.4279 14.8923 25.2986 15.0217 25.1396 15.0217Z" fill="white"/>
</g>
<defs>
<filter id="filter0_d_76_468" x="0" y="0" width="42" height="42" filterUnits="userSpaceOnUse" color-interpolation-filters="sRGB">
<feFlood flood-opacity="0" result="BackgroundImageFix"/>
<feColorMatrix in="SourceAlpha" type="matrix" values="0 0 0 0 0 0 0 0 0 0 0 0 0 0 0 0 0 0 127 0" result="hardAlpha"/>
<feOffset dy="2"/>
<feGaussianBlur stdDeviation="2"/>
<feComposite in2="hardAlpha" operator="out"/>
<feColorMatrix type="matrix" values="0 0 0 0 0.258824 0 0 0 0 0.768627 0 0 0 0 0.976471 0 0 0 1 0"/>
<feBlend mode="normal" in2="BackgroundImageFix" result="effect1_dropShadow_76_468"/>
<feBlend mode="normal" in="SourceGraphic" in2="effect1_dropShadow_76_468" result="shape"/>
</filter>
<linearGradient id="paint0_linear_76_468" x1="4" y1="19" x2="38" y2="19" gradientUnits="userSpaceOnUse">
<stop stop-color="#42CEFF"/>
<stop offset="1" stop-color="#8C00FF"/>
</linearGradient>
<clipPath id="clip0_76_468">
<rect width="13" height="13" fill="white" transform="translate(15 12)"/>
</clipPath>
</defs>
</svg>
