<?xml version="1.0" standalone="no"?>
<!DOCTYPE svg PUBLIC "-//W3C//DTD SVG 20010904//EN"
 "http://www.w3.org/TR/2001/REC-SVG-20010904/DTD/svg10.dtd">
<svg version="1.0" xmlns="http://www.w3.org/2000/svg"
 width="860.000000pt" height="790.000000pt" viewBox="0 0 860.000000 790.000000"
 preserveAspectRatio="xMidYMid meet">
<metadata>
Created by potrace 1.16, written by Peter Selinger 2001-2019
</metadata>
<g transform="translate(0.000000,790.000000) scale(0.100000,-0.100000)"
fill="#000000" stroke="none">
<path d="M0 3950 l0 -3950 4300 0 4300 0 0 3950 0 3950 -4300 0 -4300 0 0
-3950z m3162 2877 c45 -37 59 -161 42 -372 -5 -67 -49 -216 -66 -223 -4 -2 -8
-8 -8 -13 0 -5 -29 -68 -64 -141 -90 -188 -104 -222 -118 -273 -10 -37 -18
-47 -45 -57 -17 -6 -30 -15 -27 -20 3 -4 -3 -8 -12 -8 -10 0 -15 -2 -12 -5 2
-3 69 6 148 20 78 14 145 24 147 21 2 -2 -12 -7 -32 -10 -31 -6 -34 -9 -25
-27 7 -13 9 -51 5 -107 -16 -203 -21 -389 -13 -494 4 -62 8 -124 8 -138 0 -39
30 -94 43 -81 18 18 70 13 123 -11 33 -15 64 -21 94 -20 l45 3 -32 -22 c-19
-12 -33 -30 -33 -40 0 -11 20 -42 45 -68 25 -26 45 -53 45 -60 0 -6 5 -11 10
-11 6 0 10 -7 10 -15 0 -7 6 -18 13 -22 8 -4 24 -27 36 -49 25 -45 98 -105
164 -134 l41 -18 -35 -10 c-19 -6 -26 -11 -16 -11 26 -1 135 -47 152 -64 8 -8
25 -40 39 -71 14 -31 30 -56 36 -56 6 0 -2 -11 -17 -24 -19 -16 -53 -29 -96
-36 -70 -12 -67 -11 -182 -119 -51 -48 -71 -86 -55 -106 10 -12 42 -95 36 -95
-1 0 -24 27 -50 60 -50 65 -117 114 -179 131 -78 21 -247 6 -247 -21 0 -17 17
-19 56 -5 21 8 55 14 75 15 40 0 138 -27 154 -43 7 -7 5 -7 -5 -1 -8 4 -3 -8
13 -28 46 -61 33 -75 -31 -34 -53 35 -112 48 -163 37 -59 -13 -62 -19 -50 -87
6 -32 11 -93 11 -137 0 -63 -2 -76 -13 -65 -26 28 -48 153 -27 160 7 2 6 31
-2 87 -11 80 -13 86 -59 132 -44 45 -52 49 -95 49 -42 0 -51 -5 -91 -45 -37
-36 -44 -49 -39 -70 17 -69 17 -80 0 -42 -30 69 -43 43 -69 -141 -8 -57 -24
-133 -35 -169 -12 -39 -20 -93 -20 -136 0 -66 -3 -76 -56 -176 -31 -58 -73
-133 -92 -165 -34 -57 -35 -59 -16 -72 10 -8 38 -33 62 -56 68 -69 51 -93 -26
-37 -23 17 -42 35 -42 40 0 5 -11 9 -25 9 -41 0 -45 5 128 -170 41 -42 61 -53
145 -81 53 -17 101 -35 106 -39 4 -5 -4 -21 -18 -37 -34 -36 -62 -111 -71
-189 l-7 -62 -45 -6 c-25 -3 -74 -6 -109 -6 -34 0 -65 -4 -69 -10 -3 -5 -12
-7 -19 -4 -8 3 -25 -10 -41 -30 -15 -19 -36 -38 -48 -42 -12 -4 -27 -12 -34
-20 -11 -10 -9 -13 9 -17 13 -2 7 -3 -12 -1 -126 12 -225 79 -280 189 -34 67
-35 74 -35 180 0 105 2 114 32 175 18 36 64 102 103 148 127 150 145 212 137
472 -6 206 6 285 60 399 48 101 154 209 238 242 74 29 204 32 275 6 44 -16 44
-16 93 14 88 54 181 78 354 91 87 7 161 17 165 22 4 6 8 25 8 43 0 35 -5 37
-80 48 -98 13 -103 15 -83 30 16 12 12 13 -31 13 -33 -1 -53 4 -60 14 -6 8
-16 13 -21 11 -12 -4 -143 25 -275 61 -52 15 -163 44 -247 65 -151 39 -293 93
-367 139 -129 80 -259 312 -307 548 -40 193 -25 494 32 681 42 135 158 332
278 472 151 175 441 372 656 446 39 13 72 24 75 24 3 0 17 -10 32 -22z m1918
-245 c59 -24 182 -50 210 -45 3 1 40 4 83 8 l79 8 87 -89 c125 -128 285 -332
330 -422 104 -208 155 -439 156 -707 0 -137 -2 -156 -26 -222 -70 -190 -343
-495 -512 -572 -27 -12 -54 -20 -61 -18 -13 5 -7 94 14 207 21 115 14 354 -11
386 -5 6 -16 35 -25 64 -9 30 -22 64 -31 76 -11 17 -14 47 -12 111 10 434 7
455 -104 693 -17 36 -33 67 -36 70 -3 3 -16 25 -29 50 -13 25 -32 59 -42 75
-11 17 -23 37 -26 45 -22 52 -49 111 -69 150 -24 49 -46 111 -42 121 1 4 -7
17 -18 30 -14 15 -15 21 -5 17 8 -3 49 -20 90 -36z m-677 -393 c-81 -15 -130
-44 -149 -86 -26 -57 -53 -84 -79 -77 -38 9 -58 -58 -57 -196 1 -143 24 -238
88 -370 42 -84 60 -108 161 -209 117 -117 119 -121 20 -37 -232 199 -338 536
-257 820 19 67 39 108 26 54 -6 -24 -1 -22 40 22 54 58 125 89 199 88 l50 0
-42 -9z m654 -1774 c73 -12 83 -15 83 -30 0 -32 -92 -55 -335 -85 -176 -21
-425 -27 -425 -11 0 5 12 16 28 24 15 8 45 24 67 36 47 25 70 26 118 6 41 -17
61 -19 53 -6 -7 10 232 27 241 17 15 -15 -19 -27 -96 -33 -49 -3 -78 -10 -73
-15 8 -8 162 6 202 19 13 4 12 6 -2 14 -37 21 -17 29 52 23 39 -4 70 -4 70 -1
0 3 -12 18 -27 33 -17 16 -21 24 -11 21 9 -3 34 -9 55 -12z m-629 -175 c-3
-16 -4 -30 -2 -30 1 0 17 7 36 15 32 13 38 12 74 -7 49 -26 87 -52 144 -99
l46 -37 24 19 c47 37 126 52 230 46 131 -8 194 -33 273 -107 121 -114 173
-248 163 -420 -5 -81 -42 -270 -45 -232 -1 6 -12 12 -26 12 -18 0 -23 4 -18
16 3 9 12 13 22 9 13 -5 13 -4 4 6 -10 10 -24 10 -64 1 -76 -18 -112 -16 -105
6 14 48 36 210 36 266 0 122 -39 237 -92 270 -29 18 -30 0 -2 -65 42 -99 64
-179 64 -234 0 -79 -36 -232 -65 -280 -7 -11 -21 -54 -30 -95 -9 -41 -21 -90
-25 -107 -8 -31 -7 -33 18 -33 15 0 33 -4 41 -9 11 -7 3 -12 -27 -22 -23 -7
-42 -15 -42 -18 0 -3 28 -22 62 -41 40 -23 82 -60 122 -107 58 -68 116 -110
135 -99 8 6 132 -54 160 -77 11 -9 9 -14 -13 -22 -30 -13 -183 0 -202 16 -9 7
-14 5 -17 -8 -4 -16 -5 -16 -6 2 -5 78 -72 175 -134 194 -59 17 -94 20 -109 8
-8 -7 -34 -90 -57 -185 -36 -146 -40 -176 -29 -189 18 -23 82 -49 153 -63 54
-11 57 -13 40 -26 -32 -23 -104 -17 -171 15 l-62 29 -48 -106 c-58 -130 -133
-248 -203 -322 -47 -50 -49 -51 -26 -15 22 33 25 46 18 75 -4 19 -6 157 -4
305 3 216 0 293 -13 380 -22 143 -67 386 -76 405 -4 8 -15 42 -25 75 -19 67
-16 59 -79 211 -25 62 -46 114 -46 117 0 3 -27 61 -59 129 -33 67 -66 142 -74
165 -13 40 -13 42 3 33 10 -5 20 -7 23 -4 2 3 22 -6 42 -21 21 -14 43 -25 49
-25 6 1 -4 9 -22 19 -19 9 -72 51 -119 92 l-86 74 39 6 c115 20 163 32 168 45
4 11 -5 14 -40 14 -46 0 -62 14 -50 45 4 11 21 15 67 15 l61 0 -4 -30z m-1379
-1116 c53 -26 103 -107 136 -219 20 -67 26 -105 17 -105 -11 0 -177 93 -208
116 -17 13 -37 24 -45 24 -21 1 -102 39 -111 53 -15 23 -8 27 47 27 30 0 55 5
55 10 0 6 6 10 13 10 8 0 24 23 37 50 13 28 24 50 25 50 1 0 16 -7 34 -16z
m2520 -44 c72 -40 93 -58 113 -97 13 -27 14 -33 3 -33 -8 0 -17 5 -20 10 -8
13 -56 13 -90 0 -31 -12 -64 3 -116 51 l-34 31 40 34 c22 19 42 34 44 34 2 0
29 -14 60 -30z m-2628 -429 c24 -10 52 -21 61 -24 16 -6 16 -10 -3 -66 -12
-34 -24 -61 -27 -61 -4 0 -35 12 -69 26 -72 31 -79 50 -42 110 24 40 23 40 80
15z m3149 -36 c0 -8 11 -17 25 -21 26 -6 32 -21 55 -127 7 -31 10 -60 7 -63
-3 -4 -19 -2 -36 4 -39 14 -59 -5 -41 -38 16 -30 9 -33 -39 -18 -56 17 -53 47
7 74 2 1 -4 27 -13 57 -12 43 -21 57 -38 60 -19 4 -18 4 4 6 20 1 28 7 31 26
3 14 1 25 -5 25 -12 0 23 29 36 30 4 0 7 -7 7 -15z m-2518 -107 c16 -14 48
-118 48 -159 0 -14 5 -30 11 -36 8 -8 8 -13 -1 -18 -15 -9 -40 13 -40 36 0 11
-7 19 -16 19 -14 0 -14 -3 -4 -15 15 -18 11 -19 -29 -2 -28 12 -30 15 -17 33
21 28 -1 134 -28 134 -6 0 -4 5 4 10 21 13 53 12 72 -2z m-764 -171 c2 -11 -3
-17 -13 -17 -13 0 -10 -8 14 -32 17 -17 31 -37 31 -44 0 -8 16 -3 41 14 l41
27 -27 22 c-30 26 -18 30 25 8 32 -16 38 -30 18 -38 -8 -3 -5 -6 5 -6 31 -2
74 -39 80 -68 32 -157 35 -162 124 -203 66 -29 58 -44 -18 -36 -54 6 -61 5
-82 -18 -15 -16 -36 -26 -62 -28 -33 -2 -23 -6 50 -18 66 -11 91 -19 93 -31 3
-16 -120 -149 -138 -149 -5 0 -10 -5 -10 -11 0 -6 -73 -84 -163 -173 -127
-126 -171 -177 -201 -231 -43 -79 -83 -135 -96 -135 -5 0 -21 -11 -35 -25 -33
-30 -149 -89 -192 -98 -28 -5 -35 -2 -53 23 -33 46 -77 177 -90 269 -15 102
-3 213 40 362 36 126 68 193 129 269 91 113 203 185 329 210 34 7 65 16 67 21
3 4 -10 12 -29 19 -19 6 -36 19 -39 30 -6 25 -36 36 -120 45 -37 4 -67 11 -67
15 0 4 22 5 50 2 40 -4 51 -1 56 13 11 28 44 35 144 32 79 -3 96 -6 98 -20z
m2462 -26 c0 -5 21 -11 48 -15 94 -12 122 -18 117 -26 -5 -8 -135 -4 -164 5
-11 3 -42 -10 -82 -34 -35 -22 -80 -48 -99 -57 -145 -70 -230 -193 -175 -254
13 -15 13 -20 0 -47 -27 -54 -35 -199 -20 -347 8 -74 19 -156 25 -182 6 -26 9
-49 6 -51 -2 -3 -23 21 -46 52 -63 86 -74 133 -74 320 -1 233 26 332 122 451
69 85 169 156 262 185 35 10 80 11 80 0z m1103 -193 c54 -37 86 -70 80 -84 -3
-9 2 -14 16 -14 13 0 33 -16 52 -42 82 -112 119 -264 99 -408 -15 -114 -25
-125 -25 -30 0 81 -6 97 -40 103 -38 7 -72 29 -89 58 -10 16 -25 37 -35 47
-10 9 -31 41 -46 70 -26 47 -28 57 -17 85 9 25 9 35 -2 52 -12 18 -12 24 0 40
18 24 18 55 0 55 -17 0 -66 39 -49 40 6 0 13 -5 15 -11 2 -6 15 -9 28 -7 l25
3 -34 33 c-38 36 -25 43 22 10z m-263 -28 c105 -67 202 -206 236 -336 38 -147
23 -318 -40 -449 -53 -112 -158 -215 -205 -200 -16 5 -8 16 49 73 81 81 126
169 146 285 40 224 -52 434 -260 595 -28 22 -28 23 -11 42 24 26 30 25 85 -10z
m-2556 -221 c57 -63 119 -188 147 -294 16 -61 21 -111 22 -210 1 -218 -45
-349 -163 -467 -65 -65 -104 -86 -135 -74 -12 4 2 23 55 72 130 123 187 281
178 493 -8 177 -65 323 -174 444 -41 46 -57 91 -38 110 12 12 61 -22 108 -74z
m376 -53 c90 -109 131 -224 129 -366 -1 -47 -4 -75 -7 -62 -8 25 -62 86 -70
78 -3 -3 -12 0 -20 7 -8 6 -33 19 -56 28 -32 13 -44 24 -53 53 -7 20 -22 56
-33 81 l-21 45 25 36 c22 32 23 38 10 52 -20 19 -13 35 17 43 14 3 23 12 20
20 -2 8 -4 19 -5 25 -1 7 -8 20 -16 30 -14 17 -14 17 10 1 14 -9 45 -42 70
-71z"/>
<path d="M2418 2920 c35 -24 41 -40 15 -40 -13 0 -24 -20 -41 -71 -28 -85 -80
-169 -124 -202 -41 -30 -90 -47 -117 -40 -25 6 -27 -7 -7 -45 55 -105 234
-175 326 -127 107 56 136 355 44 464 -31 38 -71 66 -104 75 -22 6 -21 4 8 -14z"/>
<path d="M5663 6199 c-43 -16 -86 -146 -99 -302 -4 -53 -3 -59 8 -42 7 10 32
40 55 65 l42 45 28 -21 c15 -11 48 -61 73 -109 25 -49 54 -99 66 -111 14 -15
26 -51 38 -112 26 -142 19 -288 -20 -452 -24 -99 -24 -99 -40 -93 -8 3 -21 0
-29 -7 -12 -10 -17 -6 -32 25 -14 30 -21 35 -41 30 -21 -5 -23 -3 -15 17 4 13
7 68 7 124 -2 156 -59 406 -122 529 -32 64 -34 57 -57 -150 -28 -256 -10 -420
64 -580 58 -124 140 -174 224 -137 86 38 166 163 194 301 31 159 -13 471 -98
692 -49 126 -151 269 -207 290 -10 4 -27 3 -39 -2z"/>
<path d="M4806 4022 c-3 -5 5 -24 17 -42 92 -141 138 -236 191 -391 25 -75 46
-143 46 -153 0 -31 25 -2 53 62 51 113 56 254 12 345 -48 101 -171 187 -267
187 -26 0 -49 -4 -52 -8z"/>
<path d="M2894 2230 c-58 -23 -81 -103 -47 -161 22 -37 76 -55 115 -40 78 30
82 158 6 197 -30 16 -44 17 -74 4z"/>
</g>
</svg>
